<svg width="30" height="30" viewBox="0 0 30 30" fill="none" xmlns="http://www.w3.org/2000/svg">
<path d="M20.0656 24.0815C20.0656 27.0104 17.6912 29.3848 14.7623 29.3848C11.8334 29.3848 9.45911 27.0104 9.45911 24.0815L9.45912 5.30431C9.45912 2.37542 11.8334 0.00109028 14.7623 0.00109054C17.6912 0.0010908 20.0656 2.37543 20.0656 5.30431L20.0656 24.0815Z" fill="#2E37A4"/>
<path d="M14.8931 9.46289C17.7831 9.46289 20.1259 11.8057 20.1259 14.6956C20.1259 17.5855 17.7831 19.9283 14.8931 19.9283L5.23276 19.9283C2.34282 19.9283 5.11434e-05 17.5855 5.12697e-05 14.6956C5.1396e-05 11.8057 2.34282 9.46289 5.23276 9.46289L14.8931 9.46289Z" fill="#2E37A4"/>
<path d="M24.151 9.46289C27.0409 9.46289 29.3837 11.8057 29.3837 14.6956C29.3837 17.5855 27.0409 19.9283 24.151 19.9283L14.6918 19.9283C11.8019 19.9283 9.45912 17.5855 9.45912 14.6956C9.45912 11.8057 11.8019 9.46289 14.6918 9.46289L24.151 9.46289Z" fill="#00D3C7"/>
<path d="M20.1259 9.46289L20.1259 19.9283L14.6919 19.9283C11.8019 19.9283 9.45918 17.5855 9.45918 14.6956C9.45918 11.8057 11.8019 9.46289 14.6919 9.46289L20.1259 9.46289Z" fill="white"/>
</svg>
