<svg width="23" height="23" viewBox="0 0 23 23" fill="none" xmlns="http://www.w3.org/2000/svg">
<path fill-rule="evenodd" clip-rule="evenodd" d="M22.54 11.7605C22.54 10.945 22.4668 10.1609 22.3309 9.4082H11.5V13.8566H17.6891C17.4225 15.2941 16.6123 16.5121 15.3943 17.3275V20.213H19.1109C21.2855 18.2109 22.54 15.2627 22.54 11.7605Z" fill="#2F80ED"/>
<path fill-rule="evenodd" clip-rule="evenodd" d="M11.5 23.0005C14.605 23.0005 17.2081 21.9708 19.1109 20.2144L15.3943 17.329C14.3645 18.019 13.0472 18.4267 11.5 18.4267C8.50474 18.4267 5.96951 16.4037 5.06519 13.6855H1.22314V16.6651C3.11542 20.4235 7.00451 23.0005 11.5 23.0005Z" fill="#27AE60"/>
<path fill-rule="evenodd" clip-rule="evenodd" d="M5.06523 13.6855C4.83523 12.9955 4.70455 12.2584 4.70455 11.5005C4.70455 10.7425 4.83523 10.0055 5.06523 9.31548V6.33594H1.22318C0.444318 7.88844 0 9.6448 0 11.5005C0 13.3562 0.444318 15.1125 1.22318 16.665L5.06523 13.6855Z" fill="#E2B93B"/>
<path fill-rule="evenodd" clip-rule="evenodd" d="M11.5 4.57386C13.1884 4.57386 14.7043 5.15409 15.8961 6.29364L19.1945 2.99523C17.2029 1.13955 14.5997 0 11.5 0C7.00451 0 3.11542 2.57705 1.22314 6.33545L5.06519 9.315C5.96951 6.59682 8.50474 4.57386 11.5 4.57386Z" fill="#EF1E1E"/>
</svg>
